# xmcd CD database file
#
# Track frame offsets:
#	150
#	15486
#	40732
#	58148
#	75640
#	94791
#	114409
#	138659
#	160515
#	177524
#	190300
#	209540
#	229436
#	243592
#	264622
#	287281
#	303806
#
# Disc length: 4245 seconds
#
# Revision: 0
# Processed by: cddbd v1.5.1PL0 Copyright (c) Steve Scherf et al.
# Submitted via: CDex 1.51
#
DISCID=e8109311
DTITLE=Jane - Close up and real
DYEAR=2002
DGENRE=Country
TTITLE0=Never Mind It's Alright
TTITLE1=Come What May
TTITLE2=Borderline
TTITLE3=Alive
TTITLE4=One Voice
TTITLE5=Till Next Time
TTITLE6=The Cauliflower Song (remix)
TTITLE7=We Are One
TTITLE8=Be My Star
TTITLE9=Red,Red,Raw
TTITLE10=There Is No Escape
TTITLE11=Breath (It might be Love)
TTITLE12=These Days
TTITLE13=Carry Me
TTITLE14=Cauliflower Song (origional mix)
TTITLE15=Keep The Faith
TTITLE16=You Are (My refuge and strength)
EXTD=YEAR: 2002
EXTT0=
EXTT1=
EXTT2=
EXTT3=
EXTT4=
EXTT5=
EXTT6=
EXTT7=
EXTT8=
EXTT9=
EXTT10=
EXTT11=
EXTT12=
EXTT13=
EXTT14=
EXTT15=
EXTT16=
PLAYORDER=
